<?xml version="1.0" encoding="UTF-8"?>
<svg xmlns="http://www.w3.org/2000/svg" width="2148" height="1028" viewBox="0 0 2148 1028">
  <path d="M 34.00 5.00 L 34.00 208.00 L 228.00 208.00 L 229.00 6.00 Z M 2068.00 123.00 L 1855.00 4.00 L 1573.00 19.00 L 1376.00 111.00 L 1124.00 382.00 L 1060.00 399.00 L 1057.00 4.00 L 292.00 4.00 L 291.00 208.00 L 379.00 211.00 L 380.00 1021.00 L 630.00 1018.00 L 632.00 209.00 L 809.00 212.00 L 809.00 1021.00 L 1059.00 1020.00 L 1061.00 607.00 L 1128.00 613.00 L 1380.00 904.00 L 1511.00 993.00 L 1784.00 1027.00 L 1904.00 989.00 L 2061.00 813.00 L 2062.00 591.00 L 1937.00 451.00 L 1655.00 338.00 L 1624.00 263.00 L 1758.00 206.00 L 1963.00 273.00 Z M 1329.00 487.00 L 1415.00 388.00 L 1454.00 468.00 L 1515.00 525.00 L 1601.00 575.00 L 1670.00 603.00 L 1762.00 631.00 L 1803.00 650.00 L 1827.00 668.00 L 1845.00 704.00 L 1845.00 735.00 L 1836.00 760.00 L 1802.00 797.00 L 1741.00 818.00 L 1668.00 816.00 L 1594.00 792.00 L 1561.00 770.00 L 1531.00 740.00 Z" fill="#000000" fill-rule="evenodd"/>
</svg>
