<?xml version="1.0" encoding="UTF-8"?>
<svg xmlns="http://www.w3.org/2000/svg" width="411" height="64" viewBox="0 0 411 64" shape-rendering="geometricPrecision">
  <g fill="#364f6c" fill-rule="evenodd">
    <path d="M 398 9 L 397 10 L 396 10 L 393 13 L 393 14 L 392 15 L 392 20 L 393 21 L 393 22 L 395 24 L 404 27 L 407 30 L 407 31 L 404 34 L 403 34 L 402 35 L 400 35 L 399 34 L 398 34 L 396 32 L 394 32 L 391 35 L 391 36 L 396 39 L 406 39 L 407 38 L 410 37 L 410 24 L 409 24 L 406 22 L 404 22 L 403 21 L 401 21 L 400 20 L 399 20 L 398 19 L 398 16 L 400 14 L 401 14 L 402 13 L 404 13 L 407 15 L 409 15 L 410 14 L 410 10 L 409 10 L 408 9 Z"/>
    <path d="M 365 9 L 365 13 L 373 13 L 374 14 L 374 39 L 380 39 L 380 14 L 381 13 L 389 13 L 389 9 Z"/>
    <path d="M 350 9 L 349 10 L 349 11 L 348 12 L 348 14 L 345 19 L 345 21 L 344 22 L 344 23 L 341 28 L 341 30 L 338 35 L 338 37 L 337 38 L 337 39 L 343 39 L 343 38 L 345 35 L 345 33 L 346 32 L 358 32 L 360 34 L 360 36 L 362 39 L 368 39 L 368 38 L 365 33 L 365 31 L 362 26 L 362 24 L 359 19 L 359 17 L 356 12 L 356 10 L 355 9 Z M 352 18 L 353 18 L 354 19 L 354 20 L 355 21 L 355 23 L 356 24 L 356 27 L 355 28 L 349 28 L 348 27 L 348 25 L 350 22 L 350 20 Z"/>
    <path d="M 316 9 L 316 13 L 324 13 L 325 14 L 325 39 L 331 39 L 331 14 L 332 13 L 340 13 L 340 9 Z"/>
    <path d="M 307 9 L 307 39 L 312 39 L 312 9 Z"/>
    <path d="M 278 9 L 278 39 L 295 39 L 296 38 L 297 38 L 300 35 L 300 34 L 301 33 L 301 28 L 300 27 L 300 26 L 298 24 L 297 24 L 296 23 L 296 22 L 297 21 L 298 21 L 298 20 L 300 17 L 300 15 L 299 14 L 299 12 L 297 10 L 296 10 L 295 9 Z M 283 26 L 284 25 L 291 25 L 292 26 L 293 26 L 295 28 L 295 32 L 293 34 L 292 34 L 291 35 L 284 35 L 283 34 Z M 283 14 L 284 13 L 290 13 L 291 14 L 292 14 L 294 16 L 294 18 L 292 20 L 291 20 L 290 21 L 284 21 L 283 20 Z"/>
    <path d="M 257 9 L 256 10 L 256 11 L 255 12 L 255 14 L 252 19 L 252 21 L 251 22 L 251 23 L 248 28 L 248 30 L 245 35 L 245 37 L 244 38 L 244 39 L 250 39 L 250 38 L 252 35 L 252 33 L 253 32 L 265 32 L 267 34 L 267 36 L 269 39 L 275 39 L 275 38 L 272 33 L 272 31 L 269 26 L 269 24 L 266 19 L 266 17 L 263 12 L 263 10 L 262 9 Z M 259 18 L 260 18 L 261 19 L 261 20 L 262 21 L 262 23 L 263 24 L 263 27 L 262 28 L 256 28 L 255 27 L 255 25 L 257 22 L 257 20 Z"/>
    <path d="M 214 9 L 214 39 L 219 39 L 219 26 L 220 25 L 233 25 L 234 26 L 234 39 L 240 39 L 240 9 L 234 9 L 234 20 L 233 21 L 220 21 L 219 20 L 219 9 Z"/>
    <path d="M 71 0 L 71 63 L 134 63 L 134 0 Z M 86 20 L 87 21 L 87 22 L 88 23 L 88 24 L 91 29 L 91 32 L 90 33 L 88 33 L 87 32 L 86 29 L 85 29 L 84 30 L 84 31 L 83 32 L 83 33 L 82 34 L 82 35 L 79 40 L 79 42 L 78 43 L 77 46 L 75 48 L 73 48 L 72 47 L 72 45 L 73 44 L 73 43 L 74 42 L 74 41 L 75 40 L 75 39 L 76 38 L 76 37 L 79 32 L 79 30 L 80 29 L 80 28 L 81 27 L 81 26 L 82 25 L 83 22 L 85 20 Z M 119 19 L 120 19 L 121 20 L 121 22 L 122 23 L 122 24 L 123 25 L 123 26 L 124 27 L 124 28 L 125 29 L 125 30 L 126 31 L 126 32 L 127 33 L 127 34 L 128 35 L 128 36 L 129 37 L 129 38 L 130 39 L 130 40 L 133 45 L 133 47 L 132 48 L 129 48 L 128 47 L 128 46 L 127 45 L 127 43 L 126 42 L 126 41 L 125 40 L 125 39 L 124 38 L 124 37 L 123 36 L 123 35 L 120 30 L 120 28 L 119 28 L 119 29 L 116 34 L 115 34 L 114 33 L 114 29 L 115 28 L 115 27 L 116 26 L 116 24 Z M 102 17 L 103 17 L 104 18 L 104 19 L 105 20 L 105 21 L 106 22 L 106 23 L 107 24 L 107 25 L 108 26 L 108 27 L 109 28 L 109 29 L 110 30 L 110 31 L 113 36 L 113 38 L 114 39 L 114 40 L 115 41 L 115 42 L 116 43 L 116 44 L 119 49 L 119 50 L 118 51 L 114 51 L 113 50 L 113 49 L 112 48 L 112 47 L 111 46 L 111 45 L 108 40 L 108 38 L 107 37 L 107 36 L 106 35 L 106 34 L 105 33 L 105 32 L 104 31 L 103 28 L 102 28 L 101 29 L 101 30 L 99 33 L 99 35 L 98 36 L 98 37 L 97 38 L 97 39 L 96 40 L 96 41 L 95 42 L 95 43 L 94 44 L 94 45 L 93 46 L 92 49 L 90 51 L 87 51 L 86 50 L 86 49 L 88 46 L 88 44 L 89 43 L 89 42 L 90 41 L 90 40 L 91 39 L 91 38 L 92 37 L 92 36 L 93 35 L 93 34 L 94 33 L 94 32 L 95 31 L 95 30 L 98 25 L 98 23 L 99 22 L 100 19 Z"/>
  </g>
  <g fill="#4d87aa" fill-rule="evenodd">
    <path d="M 0 0 L 0 43 L 2 43 L 7 36 L 16 34 L 28 40 L 43 53 L 61 53 L 54 59 L 46 60 L 38 57 L 26 46 L 20 43 L 10 42 L 0 49 L 0 63 L 65 63 L 65 23 L 58 31 L 50 32 L 38 26 L 23 13 L 7 12 L 12 7 L 20 6 L 26 8 L 46 23 L 57 24 L 65 16 L 65 0 Z M 6 24 L 7 23 L 8 23 L 13 20 L 20 20 L 21 21 L 23 21 L 25 23 L 26 23 L 28 25 L 29 25 L 35 31 L 35 32 L 36 33 L 37 33 L 41 37 L 42 37 L 44 39 L 45 39 L 46 40 L 50 40 L 51 41 L 54 41 L 55 40 L 57 40 L 58 41 L 58 42 L 56 44 L 55 44 L 54 45 L 52 45 L 51 46 L 45 46 L 44 45 L 42 45 L 41 44 L 40 44 L 38 42 L 37 42 L 24 29 L 23 29 L 21 27 L 19 27 L 18 26 L 15 26 L 14 25 L 10 25 L 9 26 L 7 26 L 6 25 Z"/>
  </g>
  <g fill="#b2b348" fill-rule="evenodd">
    <path d="M 384 48 L 384 63 L 386 63 L 386 48 Z"/>
    <path d="M 366 48 L 366 63 L 368 63 L 368 48 Z"/>
    <path d="M 347 48 L 347 50 L 348 51 L 348 53 L 350 56 L 350 58 L 352 61 L 352 63 L 356 63 L 356 62 L 358 59 L 358 57 L 360 54 L 360 52 L 361 51 L 361 48 L 360 48 L 360 49 L 358 52 L 358 54 L 357 55 L 357 57 L 355 60 L 354 60 L 352 58 L 352 57 L 351 56 L 351 54 L 350 53 L 350 51 L 349 50 L 349 49 L 348 48 Z"/>
    <path d="M 335 48 L 335 49 L 334 50 L 334 52 L 333 53 L 333 54 L 330 59 L 330 61 L 329 62 L 329 63 L 331 63 L 331 61 L 332 60 L 332 59 L 333 58 L 333 57 L 336 52 L 337 52 L 338 53 L 338 54 L 340 57 L 340 60 L 342 62 L 342 63 L 344 63 L 344 62 L 342 59 L 342 57 L 339 52 L 339 50 L 338 49 L 338 48 Z"/>
    <path d="M 320 48 L 320 49 L 322 51 L 322 53 L 319 56 L 318 56 L 318 58 L 319 59 L 319 60 L 321 62 L 321 63 L 323 63 L 323 62 L 321 60 L 320 57 L 321 56 L 322 56 L 324 54 L 324 50 L 322 48 Z"/>
    <path d="M 312 48 L 312 63 L 314 63 L 314 48 Z"/>
    <path d="M 299 48 L 299 63 L 301 63 L 301 48 Z"/>
    <path d="M 279 48 L 277 48 L 277 61 L 275 63 L 277 63 L 278 62 L 278 60 L 279 59 Z"/>
    <path d="M 265 48 L 265 61 L 266 62 L 266 63 L 268 63 L 268 62 L 267 61 L 267 48 Z"/>
    <path d="M 255 48 L 255 49 L 256 49 L 258 51 L 258 53 L 256 55 L 253 56 L 253 57 L 254 58 L 255 61 L 257 63 L 259 63 L 257 61 L 257 60 L 256 59 L 256 57 L 259 54 L 259 50 L 257 48 Z"/>
    <path d="M 248 48 L 248 63 L 250 63 L 250 48 Z"/>
    <path d="M 230 48 L 230 63 L 232 63 L 232 48 Z"/>
    <path d="M 220 48 L 220 49 L 221 49 L 222 50 L 222 54 L 221 55 L 220 55 L 220 56 L 222 56 L 224 54 L 224 50 L 222 48 Z"/>
    <path d="M 213 48 L 213 63 L 215 63 L 215 48 Z"/>
    <path d="M 140 0 L 140 63 L 155 63 L 151 44 L 151 30 L 154 10 L 157 11 L 163 24 L 159 44 L 158 63 L 164 63 L 172 51 L 192 32 L 194 35 L 187 51 L 168 63 L 203 63 L 203 0 Z M 177 8 L 179 10 L 179 13 L 180 14 L 180 18 L 181 19 L 181 26 L 182 27 L 182 31 L 181 32 L 181 37 L 174 44 L 174 45 L 169 50 L 169 51 L 166 54 L 166 55 L 163 58 L 162 58 L 161 57 L 161 47 L 162 46 L 162 41 L 163 40 L 163 37 L 164 36 L 164 33 L 165 32 L 165 30 L 166 29 L 166 27 L 167 26 L 167 24 L 168 23 L 168 22 L 169 21 L 169 20 L 170 19 L 170 18 L 171 17 L 172 14 L 174 12 L 175 9 L 176 8 Z"/>
  </g>
</svg>